<?xml version="1.0" encoding="UTF-8" standalone="no"?>
<svg
   data-name="Layer 1"
   width="724.5202"
   height="348.5"
   viewBox="0 0 724.52022 348.5"
   version="1.1"
   id="svg885"
   sodipodi:docname="undraw_windows_re_uo4w.svg"
   inkscape:version="1.1.2 (b8e25be8, 2022-02-05)"
   xmlns:inkscape="http://www.inkscape.org/namespaces/inkscape"
   xmlns:sodipodi="http://sodipodi.sourceforge.net/DTD/sodipodi-0.dtd"
   xmlns="http://www.w3.org/2000/svg"
   xmlns:svg="http://www.w3.org/2000/svg">
  <defs
     id="defs889" />
  <sodipodi:namedview
     id="namedview887"
     pagecolor="#ffffff"
     bordercolor="#666666"
     borderopacity="1.0"
     inkscape:pageshadow="2"
     inkscape:pageopacity="0.0"
     inkscape:pagecheckerboard="0"
     showgrid="false"
     fit-margin-top="0"
     fit-margin-left="0"
     fit-margin-right="0"
     fit-margin-bottom="0"
     inkscape:zoom="0.57018927"
     inkscape:cx="695.38313"
     inkscape:cy="165.73444"
     inkscape:window-width="1680"
     inkscape:window-height="925"
     inkscape:window-x="0"
     inkscape:window-y="23"
     inkscape:window-maximized="0"
     inkscape:current-layer="svg885" />
  <path
     d="M 330.69058,176 H 0 V 0 h 330.69058 z"
     fill="#ffffff"
     id="path824" />
  <rect
     x="1.1838599"
     y="1.1838599"
     width="329.11212"
     height="41.829601"
     fill="#e4e4e4"
     id="rect826" />
  <path
     d="M 330.69058,176 H 0 V 0 H 330.69058 Z M 2.36771,173.63229 H 328.32287 V 2.36771 H 2.36771 Z"
     fill="#cacaca"
     id="path828" />
  <path
     id="be9f7c95-ebd4-44b9-9282-e3238283e763-244"
     data-name="Path 155"
     d="m 149.19084,77.90481 c -1.56352,0.005 -2.82851,2.03536 -2.82541,4.535 0.003,2.49269 1.26628,4.5122 2.82541,4.51711 h 133.47122 c 1.56352,-0.005 2.82851,-2.03536 2.82541,-4.535 -0.003,-2.49269 -1.26628,-4.5122 -2.82541,-4.51711 z"
     fill="#e4e4e4" />
  <path
     id="b7ae55e2-855e-4db9-b102-9092ce531234-245"
     data-name="Path 156"
     d="m 149.19084,104.13207 c -1.56352,0.005 -2.82851,2.03537 -2.82541,4.535 0.003,2.49269 1.26628,4.51219 2.82541,4.51711 h 133.47122 c 1.56352,-0.005 2.82851,-2.03536 2.82541,-4.535 -0.003,-2.49269 -1.26628,-4.5122 -2.82541,-4.51712 z"
     fill="#e4e4e4" />
  <path
     id="b4ff7f44-8d54-4cd8-922f-1a10c770d871-246"
     data-name="Path 157"
     d="m 149.19084,130.04212 c -1.56352,0.005 -2.82851,2.03536 -2.82541,4.535 0.003,2.49269 1.26628,4.51219 2.82541,4.51711 h 57.43287 c 1.56351,-0.005 2.82851,-2.03536 2.82541,-4.535 -0.003,-2.49269 -1.26628,-4.51219 -2.82541,-4.51711 z"
     fill="#e4e4e4" />
  <circle
     cx="81.421707"
     cy="108.15612"
     r="36.218609"
     fill="#e4e4e4"
     id="circle833" />
  <path
     d="M 724.52018,176 H 393.82959 V 0 h 330.69059 z"
     fill="#ffffff"
     id="path835" />
  <rect
     x="395.01346"
     y="1.1838599"
     width="329.11212"
     height="41.829601"
     fill="#e4e4e4"
     id="rect837" />
  <path
     d="M 724.52018,176 H 393.82959 V 0 H 724.52018 Z M 396.19731,173.63229 H 722.15242 V 2.36771 H 396.19731 Z"
     fill="#cacaca"
     id="path839" />
  <path
     id="b31be23e-8cea-40b3-88e7-702b78781d59-247"
     data-name="Path 155"
     d="m 543.02042,77.90481 c -1.56352,0.005 -2.82851,2.03536 -2.82541,4.535 0.003,2.49269 1.26628,4.5122 2.82541,4.51711 h 133.47124 c 1.56351,-0.005 2.82851,-2.03536 2.82541,-4.535 -0.003,-2.49269 -1.26628,-4.5122 -2.82541,-4.51711 z"
     fill="#e4e4e4" />
  <path
     id="aa955060-a795-42b6-a949-85ffda920310-248"
     data-name="Path 156"
     d="m 543.02042,104.13207 c -1.56352,0.005 -2.82851,2.03537 -2.82541,4.535 0.003,2.49269 1.26628,4.51219 2.82541,4.51711 h 133.47124 c 1.56351,-0.005 2.82851,-2.03536 2.82541,-4.535 -0.003,-2.49269 -1.26628,-4.5122 -2.82541,-4.51712 z"
     fill="#e4e4e4" />
  <path
     id="fc73c397-cba7-486e-aa16-1153498538f8-249"
     data-name="Path 157"
     d="m 543.02042,130.04212 c -1.56352,0.005 -2.82851,2.03536 -2.82541,4.535 0.003,2.49269 1.26628,4.51219 2.82541,4.51711 h 57.43286 c 1.56352,-0.005 2.82851,-2.03536 2.82542,-4.535 -0.003,-2.49269 -1.26629,-4.51219 -2.82542,-4.51711 z"
     fill="#e4e4e4" />
  <circle
     cx="475.25131"
     cy="108.15612"
     r="36.218609"
     fill="#e4e4e4"
     id="circle844" />
  <path
     d="m 571.76009,348.5 h -419 v -223 h 419 z"
     fill="#ffffff"
     id="path846" />
  <rect
     x="154.26009"
     y="127"
     width="417"
     height="53"
     fill="#6c63ff"
     id="rect848"
     style="fill:#1c57cb;fill-opacity:1" />
  <path
     d="m 571.76009,348.5 h -419 v -223 h 419 z m -416,-3 h 413 v -217 h -413 z"
     fill="#3f3d56"
     id="path850" />
  <path
     id="ae5ce118-c16e-4762-944a-d3eac5dda4be-250"
     data-name="Path 155"
     d="m 341.79167,224.20893 c -1.981,0.006 -3.58385,2.57889 -3.57993,5.74608 0.004,3.15835 1.60444,5.71716 3.57993,5.72339 h 169.1141 c 1.981,-0.006 3.58385,-2.5789 3.57993,-5.74608 -0.004,-3.15836 -1.60444,-5.71716 -3.57993,-5.72339 z"
     fill="#e4e4e4" />
  <path
     id="e85b2a84-e751-44d6-98f8-0a9fef92eb89-251"
     data-name="Path 156"
     d="m 341.79167,257.44007 c -1.981,0.006 -3.58385,2.5789 -3.57993,5.74608 0.004,3.15836 1.60444,5.71716 3.57993,5.72339 h 169.1141 c 1.981,-0.006 3.58385,-2.57889 3.57993,-5.74608 -0.004,-3.15835 -1.60444,-5.71716 -3.57993,-5.72339 z"
     fill="#e4e4e4" />
  <path
     id="fdff5968-d41d-4113-bbcc-d74a10bcc1ca-252"
     data-name="Path 157"
     d="m 341.79167,290.26928 c -1.981,0.006 -3.58385,2.57889 -3.57993,5.74608 0.004,3.15835 1.60444,5.71716 3.57993,5.72339 h 72.77 c 1.981,-0.006 3.58385,-2.5789 3.57992,-5.74608 -0.004,-3.15836 -1.60443,-5.71716 -3.57992,-5.72339 z"
     fill="#e4e4e4" />
  <circle
     cx="255.92509"
     cy="262.53873"
     r="45.890629"
     fill="#e4e4e4"
     id="circle855" />
</svg>
